<?xml version="1.0" standalone="no"?>
<!DOCTYPE svg PUBLIC "-//W3C//DTD SVG 20010904//EN"
 "http://www.w3.org/TR/2001/REC-SVG-20010904/DTD/svg10.dtd">
<svg version="1.0" xmlns="http://www.w3.org/2000/svg"
 width="700.000000pt" height="700.000000pt" viewBox="0 0 700.000000 700.000000"
 preserveAspectRatio="xMidYMid meet">
<metadata>
Created by potrace 1.14, written by Peter Selinger 2001-2017
</metadata>
<g transform="translate(0.000000,700.000000) scale(0.100000,-0.100000)"
fill="#000000" stroke="none">
<path d="M3280 6994 c-19 -2 -84 -9 -145 -14 -578 -56 -1180 -283 -1660 -625
-237 -169 -531 -446 -709 -670 -416 -521 -673 -1147 -748 -1820 -17 -155 -17
-575 0 -730 35 -318 117 -647 232 -935 310 -777 908 -1431 1655 -1815 379
-194 768 -310 1230 -367 154 -19 630 -16 790 5 605 81 1143 293 1631 643 700
504 1203 1285 1374 2134 54 267 64 378 64 700 0 322 -10 433 -64 700 -181 903
-729 1713 -1500 2221 -461 303 -943 481 -1502 555 -116 15 -564 28 -648 18z
m505 -2125 c265 -54 500 -182 701 -383 166 -166 273 -338 344 -556 50 -152 64
-247 64 -430 0 -298 -70 -532 -231 -774 -228 -343 -602 -570 -1012 -616 -124
-14 -343 2 -477 34 -820 200 -1278 1075 -973 1861 244 631 918 998 1584 864z"/>
</g>
</svg>
